<?xml version="1.0" encoding="utf-8"?>
<!-- Generator: Adobe Illustrator 17.0.0, SVG Export Plug-In . SVG Version: 6.00 Build 0)  -->
<!DOCTYPE svg PUBLIC "-//W3C//DTD SVG 1.1//EN" "http://www.w3.org/Graphics/SVG/1.1/DTD/svg11.dtd">
<svg version="1.1" id="Layer_1" xmlns="http://www.w3.org/2000/svg" xmlns:xlink="http://www.w3.org/1999/xlink" x="0px" y="0px"
	 width="223px" height="223px" viewBox="0 0 223 223" enable-background="new 0 0 223 223" xml:space="preserve">
<g id="XMLID_546_">
	<g id="XMLID_3_">
		<circle id="XMLID_656_" fill="#265198" cx="110.799" cy="111.5" r="92.786"/>
	</g>
	<g id="XMLID_5_">
		<g id="XMLID_6_">
			<path id="XMLID_655_" fill="#5086BC" d="M108.787,18.775c-1.038,0.021-2.072,0.066-3.103,0.121L32.4,61.903
				c-0.556,0.876-1.103,1.76-1.63,2.656L108.787,18.775z"/>
		</g>
		<g id="XMLID_26_">
			<path id="XMLID_654_" fill="#5086BC" d="M52.441,39.418c-1.815,1.469-3.574,3.008-5.275,4.61l39.952-22.211
				c-2.261,0.597-4.491,1.278-6.686,2.04L52.441,39.418z"/>
		</g>
		<g id="XMLID_27_">
			<path id="XMLID_653_" fill="#5086BC" d="M201.26,132.19L81.776,183.948l120.986-60.081c0.091-0.681,0.171-1.365,0.247-2.051
				l-127.766,56.52l128.337-65.839c0.008-0.68,0.007-1.358,0-2.035L67.27,171.638l135.688-70.999
				c-0.065-0.554-0.138-1.105-0.213-1.656L91.731,151.942L202.26,95.788c-0.098-0.568-0.205-1.132-0.313-1.697L68.583,154.485
				l132.15-65.849c-0.143-0.563-0.288-1.125-0.442-1.683L65.206,148.647l69.222-34.793c0.104,0.077,0.227,0.125,0.356,0.139
				c0.124,0.013,0.252-0.005,0.374-0.059l64.663-28.612c-0.139-0.473-0.284-0.943-0.43-1.413l-45.013,19.917l44.252-22.243
				c-0.195-0.571-0.395-1.141-0.601-1.707L54.949,142.462l140.377-69.202c-0.223-0.491-0.447-0.981-0.679-1.467L47.57,137.248
				l143.202-72.756c-0.288-0.489-0.583-0.973-0.88-1.456l-45.383,19.596l43.284-22.859c-0.275-0.408-0.548-0.817-0.829-1.22
				l-59.667,31.511l-82.407,35.583l140.683-69.035c-0.32-0.435-0.644-0.867-0.971-1.297L53.47,113.898l127.912-62.573
				c-0.363-0.425-0.729-0.848-1.099-1.267l-27.383,12.687l25.402-14.854c-0.344-0.365-0.69-0.73-1.041-1.09l-38.349,22.424
				l-25.446,11.79l62.842-35.173c-0.36-0.359-0.721-0.718-1.087-1.071L96.035,89.092L39.428,115.32l134.584-71.7
				c-0.397-0.37-0.8-0.733-1.204-1.097L68.768,94.125l101.809-53.553c-0.458-0.386-0.922-0.765-1.387-1.142L39.335,98.608
				l123.734-63.739c-0.525-0.359-1.052-0.714-1.586-1.063L20.792,99.434l124.601-74.005c-0.877-0.352-1.763-0.687-2.654-1.013
				L30.34,80.798l49.093-28.512l61.31-28.575c-0.676-0.23-1.355-0.453-2.038-0.668L93.533,44.097l39.135-22.728
				c-0.695-0.168-1.394-0.326-2.096-0.478L22.251,83.8c-0.326,1.044-0.633,2.097-0.923,3.158l113.219-56.793L18.895,98.855
				c-0.128,0.934-0.248,1.871-0.349,2.815c-0.016,0.15-0.027,0.299-0.042,0.449l13.168-6.142l-13.339,7.955
				c-0.049,0.595-0.088,1.188-0.126,1.782L44.805,89.85l88.171-41.128L18.094,107.9c-0.027,0.676-0.047,1.351-0.059,2.025
				l131.305-59.84L18.31,119.01c0.045,0.569,0.092,1.138,0.148,1.704L130.405,65.19L18.922,124.584
				c0.082,0.579,0.171,1.155,0.264,1.731l105.278-48.779l-104.84,51.287c0.105,0.553,0.215,1.104,0.329,1.654l131.322-58.668
				L21.184,135.646c0.147,0.547,0.301,1.092,0.458,1.635L172.343,72.21l-147.283,74.83c0.214,0.515,0.433,1.028,0.656,1.538
				l138.947-61.836L28.284,153.973c0.246,0.477,0.494,0.953,0.749,1.426l150.104-65.659L33.543,162.92
				c0.306,0.46,0.615,0.919,0.93,1.373l133.448-60.945L37.453,168.359c0.351,0.453,0.704,0.905,1.064,1.351l138.108-62.542
				l-133.513,67.83c0.381,0.407,0.767,0.81,1.156,1.211l125.765-59.996L48.155,179.985c0.45,0.413,0.902,0.823,1.361,1.227
				l135.083-60.625l-43.673,22.405l-89.038,40.235c0.422,0.347,0.846,0.693,1.274,1.033l61.452-27.77l-58.508,30.016
				c0.543,0.397,1.091,0.786,1.643,1.172l54.287-24.015l-51.654,25.788c0.478,0.31,0.957,0.618,1.441,0.919l79.019-39.45
				l37.97-16.797L63.501,191.386c0.679,0.403,1.364,0.799,2.055,1.185l39.103-16.938L67.86,193.819
				c0.54,0.282,1.085,0.557,1.632,0.829l61.963-30.622l48.291-20.918L72.189,195.935c0.747,0.342,1.5,0.672,2.258,0.995
				l90.896-39.661l-86.614,41.356c0.788,0.289,1.581,0.567,2.379,0.836l81.094-33.58L84.999,200.68
				c0.734,0.212,1.473,0.415,2.216,0.609l73.096-32.947l-68.489,34.027c0.866,0.18,1.739,0.346,2.615,0.502l76.749-34.787
				l-68.569,35.875c1.309,0.116,2.614,0.204,3.915,0.265l70.38-31.049l-50.34,29.825c2.839-0.488,5.638-1.111,8.392-1.854
				l29.725-14.079c1.868-1.334,3.687-2.736,5.451-4.204l-33.423,15.83l43.857-25.984c1.233-1.404,2.424-2.849,3.573-4.328
				l-66.123,29.171l71.99-37.665c0.535-0.875,1.055-1.76,1.562-2.655l-63.96,28.99l65.994-32.788c0.45-0.888,0.889-1.783,1.31-2.689
				l-68.4,28.323l69.89-31.708c0.273-0.653,0.539-1.31,0.797-1.971l-71.934,32.635l72.721-34.723
				c0.267-0.735,0.525-1.474,0.774-2.218L95.026,186.352l0.641-0.315l103.8-47.127c0.19-0.618,0.375-1.237,0.552-1.861
				l-61.016,27.703l61.716-30.313C200.909,133.693,201.089,132.943,201.26,132.19z"/>
		</g>
		<g id="XMLID_28_">
			<path id="XMLID_652_" fill="#5086BC" d="M43.382,47.804l59.515-28.714c-1.459,0.123-2.909,0.28-4.35,0.471l-52.064,25.12
				C45.425,45.697,44.391,46.738,43.382,47.804z"/>
		</g>
		<g id="XMLID_29_">
			<path id="XMLID_651_" fill="#5086BC" d="M29.239,67.279l100.894-46.487c-0.813-0.172-1.629-0.334-2.451-0.485L30.458,65.104
				C30.042,65.822,29.636,66.548,29.239,67.279z"/>
		</g>
		<g id="XMLID_30_">
			<path id="XMLID_650_" fill="#5086BC" d="M154.584,184.412c-0.191-0.356-0.635-0.492-0.992-0.3l-37.481,20.071
				c1.205-0.068,2.407-0.152,3.601-0.266l34.572-18.513C154.641,185.212,154.775,184.768,154.584,184.412z"/>
		</g>
		<g id="XMLID_31_">
			<path id="XMLID_649_" fill="#5086BC" d="M166.462,144.401c0.111,0.244,0.34,0.398,0.59,0.425
				c0.126,0.014,0.258-0.006,0.381-0.062l34.487-15.729c0.111-0.583,0.215-1.168,0.315-1.755l-35.411,16.15
				C166.457,143.598,166.294,144.033,166.462,144.401z"/>
		</g>
		<g id="XMLID_32_">
			<path id="XMLID_648_" fill="#5086BC" d="M179.476,167.819c0.102,0.266,0.342,0.439,0.607,0.467
				c0.112,0.012,0.227-0.002,0.339-0.044l5.382-2.055c0.518-0.709,1.025-1.426,1.523-2.151l-7.428,2.837
				C179.521,167.017,179.331,167.441,179.476,167.819z"/>
		</g>
		<g id="XMLID_33_">
			<path id="XMLID_647_" fill="#5086BC" d="M93.975,147.124c-0.168-0.368-0.604-0.53-0.972-0.361l-53.282,24.409
				c0.326,0.389,0.658,0.774,0.991,1.158l52.902-24.235C93.982,147.927,94.144,147.492,93.975,147.124z"/>
		</g>
		<g id="XMLID_34_">
			<path id="XMLID_646_" fill="#5086BC" d="M122.44,116.651c-0.17-0.367-0.605-0.528-0.973-0.357L30.67,158.317
				c0.248,0.424,0.5,0.846,0.755,1.266l90.658-41.958C122.45,117.454,122.61,117.019,122.44,116.651z"/>
		</g>
		<g id="XMLID_66_">
			<path id="XMLID_645_" fill="#5086BC" d="M23.867,144.004l74.068-36.135c0.358-0.175,0.511-0.604,0.344-0.966
				c-0.166-0.362-0.592-0.524-0.958-0.365l-75.087,32.71c0.147,0.469,0.293,0.938,0.447,1.404l44.017-19.175l-43.342,21.145
				C23.521,143.085,23.695,143.544,23.867,144.004z"/>
		</g>
		<g id="XMLID_70_">
			<path id="XMLID_644_" fill="#5086BC" d="M128.313,142.66c0.115,0.235,0.339,0.38,0.581,0.406
				c0.128,0.014,0.261-0.006,0.385-0.064l74.261-34.431c-0.016-0.53-0.033-1.061-0.058-1.589l-43.96,20.382l43.823-22.661
				c-0.038-0.529-0.084-1.056-0.131-1.582l-74.579,38.565C128.281,141.87,128.138,142.302,128.313,142.66z"/>
		</g>
		<g id="XMLID_71_">
			<path id="XMLID_643_" fill="#5086BC" d="M127.161,153.361c0.112,0.241,0.34,0.392,0.587,0.418
				c0.123,0.013,0.25-0.004,0.372-0.058l74.993-32.881c0.056-0.557,0.111-1.114,0.157-1.67l-48.206,21.136l48.401-24.099
				c0.029-0.559,0.054-1.117,0.073-1.674l-76.039,37.861C127.142,152.572,126.992,153.001,127.161,153.361z"/>
		</g>
		<g id="XMLID_72_">
			<path id="XMLID_642_" fill="#5086BC" d="M191.356,65.505l-50.428,27.148c-0.346,0.187-0.484,0.613-0.311,0.967
				c0.115,0.234,0.339,0.382,0.582,0.407c0.123,0.013,0.251-0.005,0.372-0.058l52.612-23.134c-0.215-0.44-0.433-0.878-0.655-1.313
				l-35.696,15.696l34.244-18.435C191.839,66.355,191.599,65.929,191.356,65.505z"/>
		</g>
		<g id="XMLID_73_">
			<path id="XMLID_641_" fill="#5086BC" d="M142.512,101.455c0.112,0.242,0.34,0.395,0.588,0.421
				c0.12,0.013,0.245-0.004,0.364-0.054l54.17-23.013c-0.173-0.458-0.351-0.913-0.531-1.367l-32.775,13.924l31.923-16.001
				c-0.191-0.451-0.382-0.902-0.58-1.349l-52.821,26.477C142.495,100.67,142.346,101.096,142.512,101.455z"/>
		</g>
		<g id="XMLID_74_">
			<path id="XMLID_640_" fill="#5086BC" d="M68.873,89.126c-0.172-0.358-0.597-0.515-0.96-0.352l-49.899,22.319
				c-0.003,0.535,0.004,1.068,0.01,1.601L43.8,101.166l-25.741,13.229c0.016,0.54,0.032,1.081,0.057,1.619l50.431-25.918
				C68.9,89.914,69.045,89.484,68.873,89.126z"/>
		</g>
		<g id="XMLID_75_">
			<path id="XMLID_639_" fill="#5086BC" d="M155.181,66.509c0.114,0.237,0.339,0.384,0.583,0.41
				c0.131,0.014,0.268-0.007,0.396-0.069l27.187-13.14c-0.313-0.393-0.631-0.782-0.95-1.169L155.522,65.53
				C155.157,65.706,155.005,66.144,155.181,66.509z"/>
		</g>
		<g id="XMLID_76_">
			<path id="XMLID_638_" fill="#5086BC" d="M148.629,26.804L64.565,75.915c-0.35,0.204-0.467,0.653-0.263,1.003
				c0.122,0.209,0.332,0.335,0.556,0.359c0.15,0.016,0.307-0.014,0.447-0.096l63.393-37.035l-33.32,21.807
				c-0.328,0.214-0.429,0.649-0.23,0.986c0.2,0.337,0.629,0.459,0.975,0.275l60.754-32.222c-0.504-0.289-1.009-0.574-1.519-0.853
				l-45.835,24.309l40.947-26.799C149.86,27.361,149.246,27.079,148.629,26.804z"/>
		</g>
		<g id="XMLID_77_">
			<path id="XMLID_637_" fill="#5086BC" d="M129.227,55.438c0.12,0.22,0.335,0.354,0.566,0.378c0.143,0.015,0.292-0.011,0.428-0.085
				l35.231-19.182c-0.439-0.32-0.883-0.634-1.327-0.946L129.52,54.443C129.165,54.637,129.033,55.082,129.227,55.438z"/>
		</g>
		<g id="XMLID_78_">
			<path id="XMLID_636_" fill="#5086BC" d="M82.211,45.734c-0.177-0.35-0.6-0.499-0.957-0.337L28.03,69.583
				c-0.348,0.686-0.688,1.377-1.019,2.073l38.844-17.651L24.649,77.047c-0.284,0.709-0.559,1.423-0.825,2.141l58.091-32.483
				C82.258,46.513,82.389,46.085,82.211,45.734z"/>
		</g>
		<g id="XMLID_79_">
			<path id="XMLID_635_" fill="#5086BC" d="M85.774,56.803c-0.185-0.355-0.621-0.496-0.979-0.317L20.914,88.528
				c-0.158,0.621-0.312,1.244-0.458,1.87L42.9,79.14L20.232,91.398c-0.138,0.624-0.27,1.251-0.395,1.88l65.636-35.492
				C85.825,57.596,85.959,57.158,85.774,56.803z"/>
		</g>
		<g id="XMLID_80_">
			<path id="XMLID_634_" fill="#5086BC" d="M70.441,43.868c0.116,0.231,0.338,0.375,0.578,0.4c0.125,0.013,0.256-0.005,0.379-0.061
				l53.896-24.307c-0.9-0.142-1.806-0.267-2.716-0.383L87.143,35.498l29.86-16.522c-0.923-0.062-1.843-0.112-2.761-0.147
				l-43.501,24.07C70.397,43.088,70.264,43.517,70.441,43.868z"/>
		</g>
		<g id="XMLID_81_">
			<path id="XMLID_633_" fill="#5086BC" d="M72.467,36.493c-0.184-0.36-0.625-0.503-0.986-0.319L39.01,52.763
				c-0.744,0.907-1.473,1.826-2.183,2.761l35.321-18.045C72.508,37.295,72.651,36.854,72.467,36.493z"/>
		</g>
	</g>
	<g id="XMLID_85_">
		<g id="XMLID_7_">
			<path id="XMLID_632_" fill="#FFFFFF" d="M95.853,165.608v-53.196c0-0.566-0.459-1.025-1.025-1.025h-8.8
				c-0.536,0-0.971-0.435-0.971-0.971V92.98c0-0.536,0.435-0.971,0.971-0.971h9.825V77.382c0,0-0.702-13.672,12.104-19.381
				c2.913-1.299,6.09-1.896,9.28-1.896h18.491c0.449,0,0.812,0.364,0.812,0.812V73.91c0,0.449-0.364,0.813-0.812,0.813h-8.306
				c0,0-7.979-0.38-7.979,6.649v9.599c0,0.469,0.38,0.849,0.849,0.849h15.231c0.547,0,0.977,0.469,0.93,1.014l-1.548,17.814
				c-0.042,0.482-0.446,0.852-0.93,0.852h-12.536c-0.566,0-1.025,0.459-1.025,1.025v53.083c0,0.711-0.576,1.287-1.287,1.287H97.14
				C96.43,166.895,95.853,166.319,95.853,165.608z"/>
		</g>
		<g id="XMLID_8_">
			<g id="XMLID_15_">
				<path id="XMLID_10_" fill="#265198" d="M135.728,56.105c0.449,0,0.812,0.364,0.812,0.812V73.91c0,0.449-0.364,0.813-0.812,0.813
					h-8.306c0,0-0.076-0.004-0.213-0.004c-1.268,0-7.766,0.309-7.766,6.653v9.599c0,0.469,0.38,0.849,0.849,0.849h15.231
					c0.547,0,0.977,0.469,0.93,1.014l-1.548,17.814c-0.042,0.482-0.446,0.852-0.93,0.852h-12.536c-0.566,0-1.025,0.459-1.025,1.025
					v53.083c0,0.711-0.576,1.287-1.287,1.287H97.14c-0.711,0-1.287-0.576-1.287-1.287v-53.196c0-0.566-0.459-1.025-1.025-1.025h-8.8
					c-0.536,0-0.971-0.435-0.971-0.971V92.98c0-0.536,0.435-0.971,0.971-0.971h9.825V77.382c0,0-0.702-13.672,12.104-19.381
					c2.913-1.299,6.09-1.896,9.28-1.896H135.728 M135.728,53.035h-18.491c-3.769,0-7.312,0.727-10.53,2.162
					c-14.132,6.3-13.975,20.807-13.924,22.248V88.94h-6.755c-2.228,0-4.04,1.812-4.04,4.04v17.436c0,2.228,1.812,4.04,4.04,4.04
					h6.755v51.151c0,2.402,1.954,4.357,4.357,4.357h21.987c2.402,0,4.357-1.954,4.357-4.357V114.57h10.492
					c2.092,0,3.807-1.572,3.988-3.656l1.548-17.814c0.097-1.114-0.281-2.227-1.037-3.052c-0.756-0.825-1.832-1.298-2.95-1.298
					h-13.01v-7.379c0-1.489,0.504-2.37,1.684-2.947c1.241-0.606,2.727-0.637,3.012-0.637l0.087,0.001
					c0.034,0.001,0.091,0.003,0.126,0.003h8.306c2.141,0,3.882-1.742,3.882-3.882V56.917
					C139.61,54.777,137.869,53.035,135.728,53.035L135.728,53.035z"/>
			</g>
		</g>
		<g id="XMLID_9_">
			<path id="XMLID_149_" fill="#265198" d="M117.425,156.508c-0.565,0-1.023-0.458-1.023-1.023v-5.652
				c0-0.565,0.458-1.023,1.023-1.023c0.565,0,1.023,0.458,1.023,1.023v5.652C118.448,156.05,117.99,156.508,117.425,156.508z"/>
		</g>
		<g id="XMLID_11_">
			<path id="XMLID_148_" fill="#265198" d="M117.425,146.417c-0.565,0-1.023-0.458-1.023-1.023v-13.027
				c0-0.565,0.458-1.023,1.023-1.023c0.565,0,1.023,0.458,1.023,1.023v13.027C118.448,145.959,117.99,146.417,117.425,146.417z"/>
		</g>
		<g id="XMLID_12_">
			<path id="XMLID_147_" fill="#265198" d="M99.19,73.185c-0.022,0-0.045-0.001-0.068-0.002c-0.563-0.037-0.99-0.521-0.954-1.084
				c0.024-0.371,0.681-9.129,10.208-13.304c0.516-0.227,1.12,0.008,1.348,0.527c0.227,0.518-0.009,1.121-0.527,1.348
				c-8.353,3.661-8.965,11.24-8.987,11.561C100.173,72.77,99.724,73.185,99.19,73.185z"/>
		</g>
	</g>
</g>
<g>
</g>
<g>
</g>
<g>
</g>
<g>
</g>
<g>
</g>
<g>
</g>
<g>
</g>
<g>
</g>
<g>
</g>
<g>
</g>
<g>
</g>
<g>
</g>
<g>
</g>
<g>
</g>
<g>
</g>
</svg>
