<?xml version="1.0" encoding="utf-8"?>
<!-- Generator: Adobe Illustrator 17.0.0, SVG Export Plug-In . SVG Version: 6.00 Build 0)  -->
<!DOCTYPE svg PUBLIC "-//W3C//DTD SVG 1.1//EN" "http://www.w3.org/Graphics/SVG/1.1/DTD/svg11.dtd">
<svg version="1.1" id="Layer_1" xmlns="http://www.w3.org/2000/svg" xmlns:xlink="http://www.w3.org/1999/xlink" x="0px" y="0px"
	 width="759px" height="123px" viewBox="0 0 759 123" enable-background="new 0 0 759 123" xml:space="preserve">
<g>
</g>
<g>
	<path fill="#8C6239" d="M137.188,61.56v35.597h-10.709l-7.368-9.384c-7.795,6.97-19.879,10.455-36.253,10.455
		c-18.274,0-31.915-3.603-40.919-10.812c-9.007-7.208-13.509-15.555-13.509-25.041c0-10.029,5.026-18.521,15.081-25.474
		c10.053-6.953,24.12-10.429,42.197-10.429c13.492,0,24.594,2.032,33.306,6.094c8.71,4.063,14.212,9.121,16.505,15.172
		l-21.025,1.938c-3.93-8.499-13.329-12.75-28.197-12.75c-9.498,0-17.242,2.006-23.235,6.018c-5.993,4.012-8.989,10.183-8.989,18.512
		c0,17.578,10.61,26.367,31.832,26.367c8.253,0,15.081-1.479,20.484-4.437c5.404-2.958,8.105-6.867,8.105-11.73H86.787V61.56
		H137.188z"/>
	<path fill="#8C6239" d="M214.016,98.228c-17.816,0-31.684-3.468-41.607-10.403c-9.923-6.936-14.884-15.504-14.884-25.704
		c0-10.131,5.271-18.606,15.818-25.423c10.544-6.816,24.463-10.225,41.753-10.225c17.422,0,31.193,3.409,41.313,10.225
		c10.119,6.817,15.18,15.343,15.18,25.576c0,10.744-5.256,19.423-15.768,26.035C245.307,94.921,231.371,98.228,214.016,98.228z
		 M214.213,88.13c8.709,0,16.078-1.869,22.105-5.61c6.025-3.74,9.037-10.522,9.037-20.348c0-7.989-2.488-14.254-7.467-18.793
		c-4.977-4.539-12.707-6.808-23.186-6.808c-20.697,0-31.045,8.653-31.045,25.958c0,8.398,2.636,14.764,7.909,19.099
		C196.838,85.962,204.387,88.13,214.213,88.13z"/>
	<path fill="#8C6239" d="M376.613,97.157h-82.526V27.543h25.445v58.241h57.081V97.157z"/>
	<path fill="#8C6239" d="M481.541,97.157h-87.145V27.543h86.26v10.353h-62.092v18.869h49.909v10.098h-49.909v19.482h62.977V97.157z"
		/>
	<path fill="#8C6239" d="M606.902,97.157h-25.544l-20.828-28.61h-33.993v28.61h-24.168V27.543h58.161
		c16.177,0,28.065,1.896,35.664,5.687c7.597,3.792,11.396,8.695,11.396,14.713c0,8.942-8.057,15.096-24.169,18.461L606.902,97.157z
		 M526.537,58.5h30.063c8.71,0,15.194-0.951,19.453-2.855c4.257-1.904,6.386-4.521,6.386-7.854c0-3.06-2.097-5.533-6.288-7.42
		c-4.192-1.887-10.055-2.831-17.586-2.831h-32.028V58.5z"/>
	<path fill="#8C6239" d="M682.159,97.157h-25.642V67.782l-45.685-40.238h29.277l31.831,28.712l30.457-28.712h23.186l-43.425,40.238
		V97.157z"/>
</g>
<g>
</g>
<g>
</g>
<g>
</g>
<g>
</g>
<g>
</g>
<g>
</g>
<g>
</g>
<g>
</g>
<g>
</g>
<g>
</g>
<g>
</g>
<g>
</g>
<g>
</g>
<g>
</g>
<g>
</g>
</svg>
