<?xml version="1.0" encoding="utf-8"?>
<!-- Generator: Adobe Illustrator 17.0.0, SVG Export Plug-In . SVG Version: 6.00 Build 0)  -->
<svg version="1.2" baseProfile="tiny" id="Layer_1" xmlns="http://www.w3.org/2000/svg" xmlns:xlink="http://www.w3.org/1999/xlink"
	 x="0px" y="0px" width="81.848px" height="79.835px" viewBox="0 0 81.848 79.835" xml:space="preserve">
<g>
	<path fill="#D6C7B9" d="M12.002,71.92c5.303-1.828,12.737-3.817,12.737-3.817l-3.811-7.641l-6.892-4.583
		c0,0-2.985,6.969-5.515,12.057L12.002,71.92z"/>
	<path fill="#F0A71E" d="M7.092,70.856c-1.223,2.578,0.962,2.428,1.873,2.112c0.738-0.255,1.801-0.622,3.037-1.048l-3.481-3.985
		C7.941,69.1,7.443,70.117,7.092,70.856z"/>
	<path fill="#F0A71E" d="M67.041,24.001c0.943-0.824,2.516-0.566,3.514,0.576l0,0c0.998,1.142,1.042,2.736,0.099,3.56l-45.36,39.629
		c-0.943,0.824-2.516,0.566-3.514-0.576l0,0c-0.998-1.142-1.042-2.736-0.099-3.56L67.041,24.001z"/>
	<path fill="#D99007" d="M63.428,19.865c0.943-0.824,2.516-0.566,3.514,0.576l0,0c0.998,1.142,1.042,2.736,0.099,3.56L21.681,63.63
		c-0.943,0.824-2.516,0.566-3.514-0.577l0,0c-0.998-1.142-1.042-2.736-0.099-3.56L63.428,19.865z"/>
	<path fill="#F0A71E" d="M59.814,15.729c0.943-0.824,2.516-0.566,3.514,0.576l0,0c0.998,1.142,1.042,2.736,0.099,3.56l-45.36,39.629
		c-0.943,0.824-2.516,0.566-3.514-0.576l0,0c-0.998-1.142-1.042-2.736-0.099-3.56L59.814,15.729z"/>
	
		<rect x="57.414" y="19.553" transform="matrix(-0.6579 -0.7531 0.7531 -0.6579 92.6031 85.2003)" fill="#D6C7B9" width="16.477" height="4.03"/>
	<path fill="#A7202E" d="M61.749,14.039l10.84,12.408l3.168-2.768l-0.005-0.005c0.05-0.04,0.101-0.079,0.149-0.121
		c2.379-2.078,1.881-6.541-1.113-9.967c-2.993-3.426-7.349-4.519-9.728-2.441c-0.049,0.042-0.094,0.087-0.14,0.132l-0.005-0.005
		L61.749,14.039z"/>
</g>
</svg>
