<?xml version="1.0" encoding="utf-8"?>
<!-- Generator: Adobe Illustrator 17.0.0, SVG Export Plug-In . SVG Version: 6.00 Build 0)  -->
<svg version="1.2" baseProfile="tiny" id="Layer_1" xmlns="http://www.w3.org/2000/svg" xmlns:xlink="http://www.w3.org/1999/xlink"
	 x="0px" y="0px" width="356px" height="310px" viewBox="0 0 356 310" xml:space="preserve">
<g id="XMLID_8_">
	<path id="XMLID_501_" fill="#20272B" d="M336.006,109.303c1.269,13.675,0.185,27.069-4.612,40.094
		c-3.446,9.357-7.889,18.184-13.394,26.464c-4.723,7.114-10.287,13.593-16.804,19.091c-7.66,6.465-15.638,12.56-23.549,18.73
		c-2.229,1.742-4.62,3.291-7.055,4.73c-12.398,7.343-25.157,13.999-38.707,18.995c-8.863,3.269-17.962,5.764-27.157,7.911
		c-5.395,1.262-10.797,2.509-16.191,3.778c-0.797,0.184-1.572,0.465-2.207,0.664c-0.251,0.339-0.428,0.509-0.517,0.716
		c-4.723,11.195-9.439,22.39-14.176,33.578c-0.458,1.085-0.974,2.155-1.609,3.129c-0.598,0.922-1.461,1.107-2.494,0.775
		c-1.926-0.62-3.277-1.897-3.911-3.793c-0.708-2.125-1.439-4.265-1.838-6.457c-0.812-4.524-1.439-9.084-2.096-13.638
		c-1.004-6.893-1.97-13.785-2.959-20.671c-0.03-0.221-0.177-0.428-0.339-0.79c-1.181-0.679-2.612-0.576-4.007-0.657
		c-4.59-0.251-9.188-0.502-13.785-0.701c-12.435-0.524-24.619-2.59-36.618-5.845c-10.376-2.819-20.619-5.992-30.323-10.686
		c-8.088-3.904-15.896-8.317-23.268-13.453c-12.368-8.612-21.947-19.63-28.515-33.216c-5.859-12.132-8.627-24.914-7.83-38.419
		c0.863-14.7,4.472-28.648,11.505-41.622c4.42-8.155,10.428-15.136,16.855-21.778C51.777,64.479,65.112,55.475,79.561,47.97
		c18.154-9.431,37.363-15.645,57.444-19.394c15.468-2.885,31.054-4.539,46.78-4.671c10.878-0.089,21.674,0.974,32.441,2.502
		c14.885,2.118,29.416,5.586,43.607,10.523c12.855,4.479,25.187,10.066,36.699,17.379c0.494,0.31,1.011,0.561,1.697,0.945
		c0.472-0.531,0.745-0.767,0.93-1.055c3.181-4.826,6.332-9.675,9.52-14.494c2.546-3.845,5.284-7.542,8.42-10.929
		c1.542-1.668,3.365-2.945,5.247-4.162c1.336-0.863,2.583-0.922,3.933,0.015c2.029,1.41,4.125,2.723,6.184,4.088
		c1.004,0.664,1.358,1.66,1.092,2.767c-0.214,0.908-0.605,1.793-1.063,2.605c-0.576,1.026-1.262,2-1.963,2.944
		c-5.623,7.608-10.435,15.734-14.966,24.021c-0.952,1.742-2.015,3.454-2.472,5.557c0.458,0.531,0.886,1.077,1.373,1.579
		c5.704,5.852,10.878,12.117,14.929,19.254c2.465,4.347,4.243,8.929,5.063,13.881C334.906,103.997,335.762,106.617,336.006,109.303z
		 M331.062,122.608c-0.081-2.354,0.052-4.723,0.015-7.085c-0.096-5.793-0.701-11.549-2.125-17.165
		c-1.306-5.144-2.812-10.243-5.926-14.678c-0.679-0.959-1.092-2.096-1.712-3.099c-0.996-1.594-1.941-3.247-3.136-4.679
		c-1.505-1.815-3.232-3.439-4.893-5.114c-0.376-0.384-0.878-0.649-1.513-1.1c-0.384,0.753-0.657,1.24-0.886,1.756
		c-4.088,9.291-7.535,18.833-10.87,28.412c-1.129,3.232-2.096,6.516-2.465,9.948c-0.089,0.797-0.384,1.579-0.612,2.487
		c-1.638,0.435-3.195,1.026-4.804,1.232c-2.332,0.295-4.701,0.325-7.055,0.443c-1.144,0.052-2.088-0.399-2.76-1.321
		c-0.48-0.664-0.959-1.35-1.321-2.088c-1.328-2.76-2.664-5.527-3.896-8.332c-4.369-9.933-8.723-19.874-13.01-29.844
		c-1.026-2.376-1.874-4.834-2.612-7.313c-0.679-2.288-0.339-2.819,1.941-3.734c2.516-1.011,5.055-1.956,7.616-2.871
		c2.088-0.745,3.033-0.472,4.118,1.439c1.446,2.561,2.915,5.144,4.022,7.867c1.69,4.14,3.055,8.42,4.612,12.619
		c0.244,0.664,0.155,1.638,1.365,1.985c3.328-8.273,7.394-16.088,11.557-24.257c-1.52-0.982-2.679-1.779-3.882-2.494
		c-7.011-4.184-14.324-7.734-21.903-10.752c-15.829-6.31-32.153-10.811-48.964-13.638c-11.785-1.985-23.637-3.092-35.585-2.996
		c-15.726,0.118-31.327,1.653-46.809,4.479c-21.999,4.015-42.795,11.365-62.425,22.095c-14.87,8.118-27.984,18.375-39.083,31.201
		c-6.863,7.933-12.346,16.686-15.697,26.678c-2.251,6.716-4.022,13.564-4.856,20.626c-1.107,9.343-0.974,18.612,1.41,27.77
		c4.93,18.914,15.475,33.984,31.268,45.4c7.195,5.195,14.914,9.527,22.87,13.431c9.682,4.745,19.918,7.933,30.301,10.715
		c8.332,2.236,16.767,4.007,25.349,4.797c8.11,0.745,16.25,1.041,24.383,1.557c2.118,0.133,4.229,0.347,6.339,0.539
		c1.247,0.118,1.889,0.915,2.088,2.059c0.214,1.284,0.295,2.583,0.502,3.86c0.937,5.941,1.926,11.881,2.834,17.829
		c0.657,4.31,1.188,8.649,1.823,12.966c0.066,0.48,0.458,0.915,0.886,1.734c0.553-1.114,0.982-1.815,1.255-2.568
		c0.996-2.775,2.044-5.535,2.885-8.354c1.933-6.516,5.254-12.361,8.583-18.206c0.819-1.432,2.007-2.199,3.66-2.465
		c3.136-0.517,6.28-1.055,9.372-1.786c10.095-2.384,20.213-4.708,30.109-7.874c15.254-4.885,29.423-12.117,43.23-20.102
		c7.284-4.206,13.771-9.542,20.316-14.774c4.332-3.461,8.715-6.893,12.737-10.701c14.243-13.468,23.563-29.947,28.921-48.713
		C330.279,134.63,331.268,128.697,331.062,122.608z M325.298,35.676c0.45-0.642,0.767-1.38,1.218-2.207
		c-1.476-0.915-2.753-1.712-4.066-2.524c-2.362,1.535-4.029,3.542-5.535,5.623c-4.487,6.221-8.988,12.442-13.217,18.833
		c-4.893,7.402-8.627,15.446-12.302,23.504c-1.668,3.66-2.93,7.461-3.424,11.483c-0.059,0.458-0.162,0.945-0.369,1.35
		c-0.767,1.476-2.863,1.786-3.837,0.45c-0.827-1.129-1.528-2.398-2.007-3.712c-1.026-2.76-1.911-5.579-2.775-8.398
		c-1.631-5.306-3.557-10.501-5.992-15.497c-0.347-0.708-0.849-1.343-1.343-2.111c-2.258,0.708-4.354,1.365-6.376,2
		c0,0.487-0.074,0.753,0.007,0.945c0.627,1.402,1.24,2.804,1.926,4.17c5.203,10.339,9.948,20.877,14.287,31.607
		c0.797,1.963,1.727,3.882,2.679,5.778c0.406,0.812,1.026,1.52,1.498,2.207c2.576-0.007,4.915,0.177,7.284-0.229
		c0.317-0.886,0.627-1.646,0.863-2.428c1.085-3.609,1.97-7.299,3.269-10.826c3.579-9.749,7.306-19.438,11.04-29.128
		c0.893-2.302,1.926-4.568,3.055-6.767C315.439,51.498,319.97,43.35,325.298,35.676z"/>
	<path id="XMLID_500_" fill="#FBBC08" d="M326.516,33.469c-0.45,0.827-0.767,1.564-1.218,2.207
		c-5.328,7.675-9.859,15.822-14.117,24.124c-1.129,2.199-2.162,4.465-3.055,6.767c-3.734,9.69-7.461,19.379-11.04,29.128
		c-1.299,3.528-2.184,7.217-3.269,10.826c-0.236,0.782-0.546,1.542-0.863,2.428c-2.369,0.406-4.708,0.221-7.284,0.229
		c-0.472-0.686-1.092-1.395-1.498-2.207c-0.952-1.897-1.882-3.815-2.679-5.778c-4.339-10.73-9.084-21.268-14.287-31.607
		c-0.686-1.365-1.299-2.767-1.926-4.17c-0.081-0.192-0.007-0.458-0.007-0.945c2.022-0.635,4.118-1.291,6.376-2
		c0.494,0.767,0.996,1.402,1.343,2.111c2.435,4.996,4.361,10.191,5.992,15.497c0.863,2.819,1.749,5.638,2.775,8.398
		c0.48,1.314,1.181,2.583,2.007,3.712c0.974,1.336,3.07,1.026,3.837-0.45c0.207-0.406,0.31-0.893,0.369-1.35
		c0.494-4.022,1.756-7.822,3.424-11.483c3.675-8.059,7.409-16.103,12.302-23.504c4.229-6.391,8.73-12.612,13.217-18.833
		c1.505-2.081,3.173-4.088,5.535-5.623C323.763,31.757,325.04,32.554,326.516,33.469z"/>
	<path id="XMLID_499_" fill="#20272B" d="M323.911,127.036c-0.398,1.218-1.011,2.369-1.587,3.52
		c-0.125,0.251-0.502,0.384-1.018,0.767c-0.096-0.657-0.214-1.077-0.207-1.491c0.052-2.118,0.074-4.243,0.221-6.354
		c0.207-2.819,0.539-5.631,0.782-8.45c0.701-8.014-0.406-15.741-3.668-23.128c-0.273-0.62-0.79-1.225-0.258-1.963
		c0.362-0.509,1.195-0.325,2.088,0.627c2.583,2.723,4.044,6.059,5.003,9.616c1.048,3.896,1.291,7.904,1.166,11.918
		C326.28,117.184,325.505,122.188,323.911,127.036z"/>
	<path id="XMLID_497_" fill="#20272B" d="M318.118,102.373c1.35,5.586,1.373,11.225,0.517,16.863
		c-0.509,3.299-1.919,6.295-3.808,9.048c-0.111,0.155-0.384,0.199-0.531,0.28c0.317-5.262,0.797-10.538,0.908-15.822
		c0.096-4.598-0.347-9.18-1.956-13.579c-0.487-1.343-0.258-2.258,0.428-2.472c0.989-0.303,1.528,0.406,2.074,1.004
		C316.974,99.03,317.697,100.639,318.118,102.373z"/>
	<path id="XMLID_495_" fill="#20272B" d="M311.491,116.749c-0.339,2.45-0.878,4.856-1.97,7.092
		c-0.192,0.384-0.354,0.878-1.144,0.908c-0.059-0.553-0.17-1.092-0.155-1.624c0.074-2.354,0.14-4.701,0.288-7.048
		c0.28-4.251,0.17-8.45-1.255-12.531c-0.251-0.716-0.28-1.38,0.731-1.801c1.889,1.166,2.546,3.181,3.048,5.203
		C311.837,110.166,311.948,113.45,311.491,116.749z"/>
	<path id="XMLID_488_" fill="#20272B" d="M296.2,143.309c0.937,1.498,0.841,3.055-0.509,4.118c-0.908,0.716-2.007,1.225-3.092,1.638
		c-1.985,0.76-4.059,1.284-6.022,2.081c-4.147,1.683-8.265,3.446-12.361,5.254c-1.173,0.509-2.229,1.269-3.491,2
		c0.192,0.767,0.317,1.432,0.509,2.081c1.823,5.948,1.675,11.867-0.214,17.763c-2.347,7.313-6.273,13.712-11.269,19.482
		c-4.361,5.026-9.298,9.387-15.158,12.627c-3.343,1.852-6.885,3.07-10.678,3.557c-1.771,0.229-3.52,0.162-5.269-0.266
		c-4.302-1.041-6.981-4.015-7.431-8.383c-0.295-2.863,0.125-5.645,1.1-8.354c1.048-2.908,2.487-5.601,4.214-8.155
		c2.391-3.527,5.136-6.767,8.14-9.785c7.513-7.549,15.571-14.457,24.397-20.442c0.959-0.649,1.889-1.35,3.04-2.17
		c-0.583-0.649-0.967-1.232-1.491-1.624c-3.269-2.428-7.04-3.254-11.011-3.159c-2.472,0.066-4.937,0.398-7.409,0.613
		c-0.937,0.081-1.874,0.295-2.812,0.258c-2.849-0.118-4.361-2.834-2.937-5.321c0.583-1.004,1.424-1.882,2.221-2.745
		c2.487-2.686,5.048-5.299,7.505-8.007c2.79-3.07,5.269-6.376,7.151-10.081c0.908-1.786,1.675-3.646,2.398-5.513
		c0.288-0.723,0.28-1.557,0.487-2.797c-0.908,0.472-1.461,0.642-1.845,0.996c-2.081,1.911-4.236,3.771-6.14,5.852
		c-4.081,4.443-7.454,9.446-10.885,14.39c-2.494,3.587-4.841,7.276-7.468,10.767c-2.192,2.908-4.598,5.69-7.107,8.339
		c-1.358,1.432-3.077,2.561-4.76,3.638c-0.959,0.62-2.133,1.041-3.269,1.247c-3.985,0.731-6.915-0.9-8.538-4.627
		c-0.812-1.86-1.173-3.815-1.225-5.845c-0.133-4.767,0.738-9.394,1.734-14.021c0.133-0.627,0.148-1.277,0.303-2.738
		c-1.055,1.35-1.624,2.052-2.162,2.782c-2.457,3.321-4.775,6.752-7.387,9.94c-2.007,2.457-4.31,4.693-6.62,6.878
		c-1.719,1.624-3.727,2.878-6.073,3.513c-3.882,1.055-7.35-0.214-9.505-3.601c-1.564-2.465-2.096-5.232-2.155-8.103
		c-0.044-1.993-0.007-3.985-0.007-5.97c-0.221-0.059-0.443-0.111-0.664-0.162c-0.472,0.782-0.959,1.557-1.417,2.347
		c-1.948,3.365-3.823,6.782-5.867,10.095c-1.114,1.801-2.428,3.498-3.808,5.099c-0.915,1.055-2.015,2.015-3.203,2.753
		c-3.609,2.236-7.882,1.225-10.221-2.317c-1.771-2.664-2.17-5.697-2.273-8.789c-0.052-1.52-0.007-3.048-0.007-4.627
		c-0.672-0.325-0.886,0.317-1.218,0.745c-2.767,3.527-5.454,7.121-8.324,10.56c-2.428,2.893-5.173,5.505-8.243,7.741
		c-2.015,1.469-4.14,2.723-6.553,3.424c-4.236,1.232-8.169,0.775-11.689-2.044c-0.635-0.509-1.284-1.004-2.088-1.631
		c-2.066,2.406-4.044,4.701-6.118,7.114c2.339,4.088,4.878,7.882,7.933,11.328c0.546,0.62,1.196,1.166,1.646,1.845
		c1.107,1.705,0.354,3.749-1.557,4.147c-0.62,0.125-1.476-0.015-1.978-0.376c-1.041-0.753-2.052-1.631-2.826-2.642
		c-1.786-2.347-3.439-4.789-5.122-7.217c-0.657-0.952-1.255-1.963-1.845-2.893c-1.483,0.133-2.177,1.203-3.107,1.882
		c-3.254,2.398-6.679,4.42-10.664,5.395c-8.007,1.956-14.612-1.277-17.874-8.856c-1.697-3.948-2.494-8.11-2.723-12.383
		c-0.613-11.136,0.266-22.169,2.443-33.105c1.697-8.479,4.184-16.7,8.066-24.456c3.254-6.502,7.38-12.368,12.723-17.32
		c5.188-4.812,11.084-8.413,18.11-9.867c3.742-0.775,7.49-0.708,11.217,0.266c3.926,1.026,7.003,3.306,9.712,6.31
		c0.435,0.059,0.893,0.177,1.35,0.177c3.321,0.007,5.254,1.897,6.258,4.804c0.494,1.424,0.694,2.989,0.775,4.502
		c0.236,4.273-0.458,8.472-1.321,12.641c-2.546,12.405-6.192,24.471-11.483,35.998c-2.317,5.048-4.974,9.918-8,14.575
		c-0.635,0.982-1.21,1.993-1.779,2.922c2.251,3.587,4.745,4.561,8.391,3.424c2.066-0.642,3.919-1.697,5.505-3.114
		c2.376-2.118,4.723-4.288,6.885-6.612c4.753-5.129,8.634-10.922,12.287-16.863c3.653-5.926,7.195-11.911,9.631-18.486
		c0.9-2.428,2.044-4.775,3.232-7.085c0.959-1.867,2.31-2.28,4.11-1.601c0.738,0.28,1.136,0.767,1.299,1.528
		c0.31,1.446,0.096,2.849-0.472,4.162c-1.026,2.376-2.044,4.775-3.277,7.055c-4.384,8.125-6.701,16.833-7.638,25.969
		c-0.207,2.022-0.096,4.015,0.362,5.978c0.184,0.782,0.517,1.564,0.922,2.273c0.59,1.011,1.771,1.269,2.76,0.59
		c0.775-0.524,1.528-1.151,2.096-1.874c1.247-1.572,2.457-3.181,3.527-4.871c4.029-6.406,7.417-13.158,10.619-19.999
		c2.398-5.129,4.775-10.265,7.092-15.438c0.627-1.387,1.373-2.494,2.981-2.671c1.498-0.162,2.664,0.657,2.553,2.162
		c-0.074,0.93-0.177,1.882-0.465,2.76c-2.258,6.856-3.948,13.852-4.767,21.017c-0.399,3.505-0.428,7.062-0.391,10.597
		c0.007,1.358,0.502,2.782,1.07,4.044c0.708,1.564,2.243,2.155,3.874,1.579c1.092-0.384,2.192-0.952,3.077-1.69
		c1.719-1.432,3.38-2.952,4.893-4.598c4.797-5.247,8.797-11.099,12.442-17.18c2.79-4.657,5.38-9.431,7.97-14.199
		c0.841-1.542,1.365-3.254,2.103-4.863c0.288-0.613,0.686-1.24,1.188-1.69c0.812-0.708,2.125-0.731,2.981-0.162
		c0.871,0.576,1.218,1.432,1.026,2.443c-0.17,0.922-0.435,1.83-0.686,2.738c-2.753,10.007-5.823,19.933-7.594,30.176
		c-0.48,2.767-0.458,5.638-0.465,8.457c0,1.129,0.458,2.302,0.886,3.38c0.376,0.937,1.38,1.373,2.369,1.055
		c0.989-0.317,1.978-0.768,2.841-1.35c2.376-1.594,4.339-3.653,6.059-5.911c2.428-3.195,4.76-6.457,7.085-9.726
		c3.077-4.332,5.978-8.797,9.195-13.018c2.642-3.461,5.542-6.745,8.516-9.933c1.513-1.616,3.387-2.922,5.203-4.236
		c0.937-0.672,2.059-1.151,3.166-1.52c3.048-1.004,5.387,0.502,5.845,3.705c0.295,2.015,0.015,3.992-0.561,5.941
		c-0.9,3.077-2.251,5.955-3.852,8.723c-2.745,4.73-6.265,8.856-9.992,12.819c-0.686,0.723-1.638,1.314-1.771,2.494
		c16.796,0.863,16.103,3.21,22.028,7.21c0.546-0.266,1.181-0.553,1.786-0.886c5.498-3.011,11.232-5.468,17.21-7.38
		c2.133-0.679,4.206-1.542,6.317-2.288C294.539,141.825,295.425,142.084,296.2,143.309z M264.755,179.048
		c1.823-4.457,2.576-9.055,1.882-13.852c-0.17-1.151-0.332-2.295-1.255-3.343c-0.856,0.494-1.69,0.915-2.45,1.439
		c-6.826,4.664-13.402,9.66-19.549,15.195c-3.513,3.159-6.841,6.502-9.778,10.214c-2.199,2.79-4.199,5.697-5.52,9.025
		c-0.701,1.756-1.306,3.535-1.321,5.468c-0.03,3.638,1.491,5.181,5.144,5.166c0.465,0,0.937-0.074,1.41-0.118
		c2.487-0.273,4.834-1.011,7.077-2.118c3.616-1.793,6.878-4.103,9.867-6.811C256.563,193.609,261.53,186.952,264.755,179.048z
		 M125.249,111.974c0.753-4.302,1.262-8.642,1.026-13.033c-0.14-2.553-0.325-5.114-1.712-7.513
		c-1.203,0.458-1.786,1.373-2.428,2.184c-2.664,3.336-4.826,6.989-6.612,10.863c-5.151,11.18-7.815,22.958-8.369,35.231
		c-0.162,3.66,0,7.313,0.708,10.922c0.148,0.76,0.081,1.668,1.24,2.088c0.376-0.531,0.827-1.055,1.159-1.653
		c1.668-2.989,3.387-5.948,4.93-9.003C120.017,132.534,123.419,122.505,125.249,111.974z M120.821,87.142
		c0.229-0.236,0.339-0.583,0.568-1.004c-0.406-0.428-0.76-0.9-1.21-1.247c-2.612-1.993-5.623-2.93-8.87-3.107
		c-4.612-0.258-8.856,1.092-12.885,3.195c-5.107,2.657-9.284,6.435-12.9,10.87c-3.749,4.612-6.612,9.741-8.915,15.21
		c-3.631,8.656-5.705,17.719-6.974,26.973c-1.114,8.199-1.513,16.435-0.856,24.707c0.258,3.321,0.893,6.553,2.273,9.586
		c2.516,5.527,6.369,6.664,11.21,5.66c4.989-1.026,8.922-4.015,12.605-7.579c-0.76-1.919-1.52-3.631-2.125-5.402
		c-0.827-2.45-1.601-4.93-2.258-7.431c-0.199-0.738-0.14-1.683,0.155-2.384c0.221-0.531,0.959-1.033,1.55-1.159
		c0.362-0.074,1.011,0.524,1.284,0.974c0.48,0.797,0.775,1.705,1.144,2.576c0.996,2.391,1.97,4.797,2.989,7.18
		c0.221,0.502,0.59,0.937,1.033,1.631c1.889-1.483,2.981-3.321,4.391-4.848c1.262-1.358,1.513-2.657,0.841-4.479
		c-1.646-4.465-2.214-9.151-2.214-13.903c0.007-11.564,2.125-22.759,6.022-33.607C110.652,101.281,114.607,93.54,120.821,87.142z"/>
	<path id="XMLID_485_" fill="#20272B" d="M225.901,94.381c1.026,1.041,1.373,2.421,1.41,3.904c-0.221,2.147-0.886,4.088-2.812,5.38
		c-1.564,1.048-3.055,1.085-4.531-0.074c-0.989-0.775-2.184-1.402-2.627-2.738c-0.694-2.103-0.14-3.933,1.24-5.55
		c1.373-1.601,3.077-2.583,5.254-2.103C224.58,93.363,225.362,93.835,225.901,94.381z"/>
	<path id="XMLID_457_" fill="#20272B" d="M155.048,273.73c0.266,1.815,0.48,3.734-0.694,5.815c-1.66-1.528-2.007-3.188-2.384-4.738
		c-1.417-5.845-2.723-11.712-4.029-17.571c-0.207-0.915-0.273-1.867-0.295-2.804c-0.022-0.856,0.273-1.616,1.159-2
		c0.775-0.059,1.026,0.59,1.188,1.092C152.163,260.137,154.059,266.823,155.048,273.73z"/>
	<path id="XMLID_441_" fill="#20272B" d="M96.601,33.558c0.967-1.653,2.273-2.029,3.402-2.605c4.627-2.354,9.439-4.28,14.427-5.727
		c7.468-2.162,14.981-4.155,22.67-5.387c3.749-0.605,6.169-0.502,9.704,0.576c-0.694,0.428-1.173,0.9-1.742,1.055
		c-2.723,0.731-5.446,1.491-8.206,2.052c-11.667,2.354-23.298,4.819-34.471,9.04c-1.321,0.494-2.701,0.834-4.066,1.173
		C97.915,33.831,97.442,33.653,96.601,33.558z"/>
	<path id="XMLID_435_" fill="#20272B" d="M52.994,82.883c-0.207,1.151-1.173,1.705-1.919,2.413
		c-4.391,4.155-8.147,8.834-11.453,13.874c-2.406,3.675-4.103,7.682-5.513,11.822c-1.203,3.557-2.443,7.107-3.911,11.38
		c-1.033-3.365-1.136-5.431-0.627-8.354c1.063-6.007,3.513-11.468,6.686-16.619c2.362-3.83,5.188-7.299,8.346-10.494
		c1.749-1.771,3.697-3.291,5.911-4.45C51.408,81.991,52.308,81.858,52.994,82.883z"/>
	<path id="XMLID_434_" fill="#20272B" d="M47.209,123.302c-0.244,0.871-0.568,1.719-0.856,2.561
		c-1.041-0.111-0.834-0.871-1.033-1.328c-0.192-0.421-0.332-0.908-0.332-1.358c0-2.118-0.199-4.273,0.155-6.332
		c0.849-4.885,2.48-9.557,4.561-14.066c0.849-1.845,1.993-3.468,3.52-4.812c0.871-0.767,1.07-0.775,2.922-0.17
		c-0.125,0.435-0.14,0.945-0.376,1.314c-3.144,4.804-4.686,10.25-6.265,15.674C48.684,117.612,47.983,120.468,47.209,123.302z"/>
	<path id="XMLID_433_" fill="#20272B" d="M40.249,119.848c-0.199,0.613-0.583,1.166-0.863,1.705
		c-0.834-0.244-0.782-0.79-0.819-1.225c-0.258-2.841-0.066-5.653,0.605-8.435c1.262-5.21,3.306-10.088,6.206-14.59
		c0.76-1.181,1.697-2.266,2.635-3.321c0.745-0.849,1.69-1.262,2.834-0.731c0.48,0.583,0.17,1.114-0.103,1.616
		c-0.28,0.509-0.635,0.989-0.952,1.483c-3.306,5.085-5.867,10.494-7.387,16.383C41.792,115.133,41.01,117.487,40.249,119.848z"/>
</g>
</svg>
